PathFileType	4	(x/y/z)	S05_P20_T08
DataRate	CameraRate	NumFrames	NumMarkers	Units	OrigDataRate	OrigDataStartFrame	OrigNumFrames
240	240	5	50	mm	240	145	386
Frame#	Time	Sternum			R.Acromium			L.Acromium			Top.Head			R.ASIS			L.ASIS			R.PSIS			L.PSIS			R.Great.Tro			L.Great.Tro			R.Iliac.Crest			L.Iliac.Crest			V.Sacral			R.Thigh.Upper.Post			R.Thigh.Lower.Ant			R.Thigh.Lower.Post			R.Thigh.Upper.Ant			R.Knee.Lat			R.Knee.Med			R.Shank.Upper.Post			R.Shank.Lower.Ant			R.Shank.Lower.Post			R.Shank.Upper.Ant			R.Ankle.Lat			R.Ankle.Med			R.Heel.Upper			R.Heel.Med			R.Heel.Lat			R.Toe.Lat			R.Toe.Med			R.Toe.Tip			L.Thigh.Upper.Post			L.Thigh.Lower.Ant			L.Thigh.Lower.Post			L.Thigh.Upper.Ant			L.Knee.Lat			L.Shank.Upper.Post			L.Shank.Lower.Ant			L.Shank.Lower.Post			L.Shank.Upper.Ant			L.Ankle.Lat			L.Ankle.Med			L.Heel.Upper			L.Heel.Med			L.Heel.Lat			L.Toe.Lat			L.Toe.Med			L.Toe.Tip			Cervical.Spine			Back			
		X1	Y1	Z1	X2	Y2	Z2	X3	Y3	Z3	X4	Y4	Z4	X5	Y5	Z5	X6	Y6	Z6	X7	Y7	Z7	X8	Y8	Z8	X9	Y9	Z9	X10	Y10	Z10	X11	Y11	Z11	X12	Y12	Z12	X13	Y13	Z13	X14	Y14	Z14	X15	Y15	Z15	X16	Y16	Z16	X17	Y17	Z17	X18	Y18	Z18	X19	Y19	Z19	X20	Y20	Z20	X21	Y21	Z21	X22	Y22	Z22	X23	Y23	Z23	X24	Y24	Z24	X25	Y25	Z25	X26	Y26	Z26	X27	Y27	Z27	X28	Y28	Z28	X29	Y29	Z29	X30	Y30	Z30	X31	Y31	Z31	X32	Y32	Z32	X33	Y33	Z33	X34	Y34	Z34	X35	Y35	Z35	X36	Y36	Z36	X37	Y37	Z37	X38	Y38	Z38	X39	Y39	Z39	X40	Y40	Z40	X41	Y41	Z41	X42	Y42	Z42	X43	Y43	Z43	X44	Y44	Z44	X45	Y45	Z45	X46	Y46	Z46	X47	Y47	Z47	X48	Y48	Z48	X49	Y49	Z49	X50	Y50	Z50	

145	0.6	-598.14	1239.6	334.9	-694.78	1492.5	497.97	-687.53	1522.5	165.97	-699	1811.4	332.11	-671.02	996.93	451.13	NaN	NaN	NaN	-871.26	1009.1	360.21	-870.2	1013.5	268.43	-748.92	914.82	512.98	-754.14	914.48	125.34	-763.71	1076.6	488.46	-750.62	1071.2	153.62	-880.27	975.13	326.82	-629.72	707.66	503.68	-564.9	653.37	446.18	-621.22	620.54	479.16	-577.83	739.15	470.03	-601.43	529.26	460.97	-598.07	517.01	329.57	-637.12	279.91	448.83	-564.87	225.52	450.37	-625.08	205.34	432.53	-576.3	301.64	464.69	-562.12	121.67	432.82	-556.13	145.4	346.44	-623	69.93	367.22	-609.55	38.758	339.53	-614.86	41.914	404.33	-452.22	41.804	465.14	-413.35	55.528	349.01	-355.08	81.355	396.78	-768.96	676.95	128.69	-692.5	598.2	145.95	-763.94	582.09	141.45	-690.37	688.5	132.35	-772.38	493.42	146.42	-943.68	380.41	157.47	-929.27	293.09	159.21	-990.98	326.76	177.74	-886.91	348.12	144.44	-1060.2	207.94	189.86	-1015.9	195.16	271.47	-1129.5	208.1	249.96	-1132.8	181.77	282.76	-1148.8	187.35	223.58	-1027.4	67.434	150.04	-989.64	59.932	264.71	-941.17	42.946	206.17	-743.62	1549.1	338.16	-862.52	1275.8	318.06
146	0.60417	-592.31	1240.3	335.5	-689.12	1493	498.64	-681.82	1523	166.64	-693.26	1811.9	332.92	-665.43	997.61	451.75	NaN	NaN	NaN	-865.63	1009.7	360.33	-863.92	1013.7	268.58	-743.58	915.6	513.45	-747.55	914.26	125.79	-758.29	1077.4	488.86	-744.69	1071.4	154	-874.53	975.62	327.03	-625.06	707.99	504.46	-560.26	653.45	447.19	-616.83	620.85	479.97	-572.92	739.28	471.02	-597.36	529.39	461.8	-594.01	517.2	330.43	-634.81	280.2	449.61	-562.96	225.27	450.82	-623.39	205.58	433.17	-573.77	301.45	465.29	-561.25	121.47	433.04	-555.18	145.31	346.75	-622.6	70.179	367.34	-609.36	38.992	339.58	-614.66	42.073	404.41	-451.95	40.906	465.29	-412.94	54.421	349.08	-354.42	79.586	396.89	-759.5	676.33	128.65	-682.11	598.44	145.72	-753.4	581.49	141.16	-681	688.8	132.38	-760.79	493.16	146.05	-933.28	382.96	157.29	-920.2	295.39	159.04	-981.39	330.11	177.55	-876.97	349.8	144.26	-1052.7	212.79	189.75	-1008.5	199	271.1	-1121.5	214.9	250	-1125.6	188.76	282.88	-1141.6	194.68	223.67	-1023.7	70.961	149.93	-985.9	62.343	264.34	-938.13	43.497	205.73	-737.9	1549.6	338.84	-856.69	1276.3	318.55
147	0.60833	-586.53	1241	336.08	-683.45	1493.6	499.29	-676.13	1523.6	167.27	-687.53	1812.5	333.7	-659.88	998.29	452.37	-648.43	994.07	203.42	-860.04	1010.3	360.47	-857.66	1013.9	268.74	-738.26	916.38	513.91	-741.01	914.07	126.25	-752.87	1078.2	489.24	-738.82	1071.7	154.38	-868.82	976.13	327.24	-620.49	708.29	505.26	-555.72	653.5	448.21	-612.54	621.13	480.77	-568.1	739.37	472.01	-593.4	529.5	462.6	-590.04	517.39	331.26	-632.6	280.49	450.37	-561.15	225.03	451.24	-621.79	205.83	433.78	-571.35	301.27	465.88	-560.45	121.28	433.25	-554.3	145.25	347.03	-622.24	70.394	367.45	-609.19	39.202	339.63	-614.48	42.213	404.49	-451.72	40.119	465.43	-412.59	53.431	349.14	-353.85	77.983	396.99	-750.01	675.77	128.62	-671.7	598.77	145.54	-742.79	580.98	140.92	-671.62	689.18	132.44	-749.11	492.99	145.73	-922.7	385.54	157.12	-910.92	297.75	158.91	-971.6	333.5	177.38	-866.84	351.53	144.13	-1044.8	217.65	189.64	-1000.8	202.88	270.77	-1113.2	221.59	250.02	-1118	195.64	282.99	-1134	201.9	223.73	-1019.6	74.672	149.8	-981.73	64.952	263.97	-934.61	44.241	205.28	-732.18	1550.1	339.48	-850.89	1276.8	319.04
148	0.6125	-580.78	1241.7	336.61	-677.76	1494.1	499.9	-670.45	1524.3	167.88	-681.79	1813	334.44	-654.36	998.98	452.97	-643.48	994.4	203.81	-854.49	1011	360.63	-851.43	1014.1	268.93	-732.95	917.16	514.38	-734.51	913.93	126.69	-747.42	1079	489.63	-733	1071.9	154.74	-863.16	976.66	327.48	-615.99	708.58	506.05	-551.28	653.52	449.22	-608.36	621.4	481.57	-563.35	739.44	473.02	-589.55	529.6	463.38	-586.18	517.57	332.07	-630.48	280.79	451.11	-559.43	224.81	451.64	-620.28	206.09	434.36	-569.04	301.1	466.45	-559.73	121.12	433.43	-553.5	145.21	347.28	-621.93	70.578	367.55	-609.03	39.388	339.68	-614.32	42.336	404.56	-451.52	39.438	465.56	-412.28	52.546	349.18	-353.35	76.536	397.06	-740.49	675.29	128.61	-661.26	599.21	145.42	-732.15	580.57	140.72	-662.23	689.66	132.52	-737.35	492.93	145.47	-911.95	388.16	156.97	-901.44	300.15	158.81	-961.62	336.91	177.22	-856.55	353.33	144.06	-1036.7	222.49	189.54	-992.87	206.8	270.47	-1104.7	228.14	250.05	-1110.3	202.36	283.08	-1126.1	208.96	223.76	-1014.9	78.535	149.65	-977.1	67.739	263.59	-930.59	45.191	204.8	-726.47	1550.6	340.1	-845.11	1277.3	319.54
149	0.61667	-575.06	1242.4	337.1	-672.06	1494.7	500.49	-664.79	1524.9	168.45	-676.06	1813.6	335.15	-648.86	999.65	453.56	-638.34	994.76	204.22	-848.97	1011.7	360.81	-845.24	1014.3	269.14	-727.66	917.94	514.83	-728.06	913.83	127.14	-741.96	1079.8	490.01	-727.23	1072.1	155.1	-857.52	977.2	327.74	-611.58	708.84	506.84	-546.94	653.51	450.21	-604.29	621.65	482.34	-558.69	739.48	474.01	-585.81	529.69	464.12	-582.42	517.74	332.85	-628.46	281.08	451.8	-557.8	224.59	452	-618.85	206.34	434.89	-566.83	300.93	466.99	-559.06	120.98	433.58	-552.76	145.19	347.5	-621.65	70.734	367.64	-608.9	39.551	339.72	-614.18	42.447	404.62	-451.36	38.854	465.68	-412.02	51.757	349.2	-352.92	75.235	397.1	-730.95	674.91	128.62	-650.84	599.77	145.36	-721.48	580.27	140.58	-652.86	690.23	132.64	-725.53	492.98	145.29	-901.08	390.79	156.85	-891.76	302.6	158.75	-951.47	340.32	177.08	-846.11	355.18	144.03	-1028.4	227.28	189.44	-984.74	210.72	270.21	-1096	234.49	250.07	-1102.2	208.87	283.14	-1117.9	215.79	223.76	-1009.7	82.512	149.47	-971.98	70.678	263.21	-926.03	46.356	204.32	-720.75	1551.2	340.7	-839.37	1277.8	320.06
